Info:

Genre............: Drama
Year.............: 2010
IMDb Link........: http://www.imdb.com/title/tt1291465/
Source...........: PDVD @ SHER (Thx DUS)
Ripper...........: Princeplain (Aamir) -DrC
Sample...........:

General
Format                           : AVI
Format/Info                      : Audio Video Interleave
File size                        : 695 MiB
Duration                         : 5h 20mn
Overall bit rate                 : 303 Kbps
Writing library                  : MPlayer

Video
ID                               : 0
Format                           : MPEG-4 Visual
Format profile                   : Advanced Simple@L5
Format settings, BVOP            : Yes
Format settings, QPel            : Yes
Format settings, GMC             : No warppoints
Format settings, Matrix          : Default (H.263)
Codec ID                         : XVID
Codec ID/Hint                    : XviD
Duration                         : 2h 40mn
Bit rate                         : 548 Kbps
Width                            : 592 pixels
Height                           : 256 pixels
Display aspect ratio             : 2.35:1
Frame rate                       : 23.976 fps
Resolution                       : 8 bits
Colorimetry                      : 4:2:0
Scan type                        : Progressive
Bits/(Pixel*Frame)               : 0.151
Stream size                      : 629 MiB (91%)
Writing library                  : XviD 1.2.1 (UTC 2008-12-04)

Audio
ID                               : 1
Format                           : MPEG Audio
Format version                   : Version 2
Format profile                   : Layer 3
Mode                             : Joint stereo
Format_Settings_ModeExtension    : MS Stereo
Codec ID                         : 55
Codec ID/Hint                    : MP3
Duration                         : 5h 20mn
Bit rate mode                    : Variable
Bit rate                         : 45.5 Kbps
Nominal bit rate                 : 48.0 Kbps
Channel(s)                       : 2 channels
Sampling rate                    : 22.05 KHz
Stream size                      : 52.2 MiB (8%)
Alignment                        : Aligned on interleaves
Interleave, duration             : 26 ms (0.63 video frame)
Interleave, preload duration     : 480 ms
Writing library                  : LAME3.98r
Encoding settings                : -m j -V 4 -q 2 -lowpass 7.5 --abr 48


Duration : 2h 40mn 28sec
Kindly ASSIST me to SEED!!
Please SEED till 1:1 Ratio.
Sample must be checked to confirm Audio & Video Quality.
This Rip has been burned and tested to be played on DVD Players.